# xmcd CD database file
#
# Track frame offsets:
#	150
#	23781
#	39594
#	60673
#	85053
#	108209
#	128009
#	152938
#	171165
#	189395
#	211090
#
# Disc length: 3040 seconds
#
# Revision: 0
# Processed by: cddbd v1.5.2PL0 Copyright (c) Steve Scherf et al.
# Submitted via: CDex 1.70beta2
#
DISCID=860bde0b
DTITLE=Madeleine Peyrouxt - Bare Bones
DYEAR=1900
DGENRE=Jazz
TTITLE0=Instead
TTITLE1=Bare Bones
TTITLE2=Damn The Circumstances
TTITLE3=River Of Tears
TTITLE4=You Can't Do Me
TTITLE5=Love And Treachery
TTITLE6=Our Lady Of Pigalle
TTITLE7=Homeless Happiness
TTITLE8=To Love You All Over Again
TTITLE9=I Must Be Saved
TTITLE10=Somethin' Grand
EXTD=
EXTT0=
EXTT1=
EXTT2=
EXTT3=
EXTT4=
EXTT5=
EXTT6=
EXTT7=
EXTT8=
EXTT9=
EXTT10=
PLAYORDER=
